<svg width="149" height="40" viewBox="0 0 149 40" fill="none" xmlns="http://www.w3.org/2000/svg">
<path d="M139 3.3335H134C131.79 3.3335 129.67 4.21147 128.107 5.77427C126.545 7.33708 125.667 9.45669 125.667 11.6668V16.6668H120.667V23.3335H125.667V36.6668H132.333V23.3335H137.333L139 16.6668H132.333V11.6668C132.333 11.2248 132.509 10.8009 132.821 10.4883C133.134 10.1758 133.558 10.0002 134 10.0002H139V3.3335Z" stroke="black" stroke-width="4" stroke-linecap="round" stroke-linejoin="round"/>
<path d="M85.8333 3.3335H69.1667C64.5643 3.3335 60.8333 7.06446 60.8333 11.6668V28.3335C60.8333 32.9359 64.5643 36.6668 69.1667 36.6668H85.8333C90.4357 36.6668 94.1667 32.9359 94.1667 28.3335V11.6668C94.1667 7.06446 90.4357 3.3335 85.8333 3.3335Z" stroke="black" stroke-width="4" stroke-linecap="round" stroke-linejoin="round"/>
<path d="M84.1667 18.95C84.3724 20.3371 84.1354 21.7537 83.4896 22.9984C82.8438 24.243 81.8219 25.2524 80.5694 25.8828C79.3168 26.5132 77.8974 26.7327 76.513 26.5099C75.1285 26.2871 73.8496 25.6335 72.8581 24.6419C71.8665 23.6504 71.2129 22.3715 70.9901 20.987C70.7673 19.6026 70.9868 18.1832 71.6172 16.9306C72.2476 15.6781 73.257 14.6562 74.5016 14.0104C75.7463 13.3646 77.1629 13.1277 78.55 13.3333C79.9649 13.5432 81.2748 14.2025 82.2862 15.2139C83.2976 16.2253 83.9569 17.5351 84.1667 18.95Z" stroke="black" stroke-width="4" stroke-linecap="round" stroke-linejoin="round"/>
<path d="M86.6667 10.8335H86.6833" stroke="black" stroke-width="4" stroke-linecap="round" stroke-linejoin="round"/>
<g clip-path="url(#clip0_60_430)">
<path d="M38.3333 5.00016C36.7373 6.12595 34.9702 6.98701 33.1 7.55016C32.0962 6.39601 30.7622 5.57798 29.2784 5.2067C27.7946 4.83543 26.2325 4.92882 24.8035 5.47425C23.3744 6.01968 22.1474 6.99083 21.2883 8.25635C20.4292 9.52188 19.9795 11.0207 20 12.5502V14.2168C17.0711 14.2928 14.1688 13.6432 11.5517 12.3259C8.93457 11.0086 6.68386 9.06455 5 6.66682C5 6.66682 -1.66667 21.6668 13.3333 28.3335C9.90088 30.6634 5.81193 31.8317 1.66666 31.6668C16.6667 40.0002 35 31.6668 35 12.5002C34.9985 12.0359 34.9538 11.5728 34.8667 11.1168C36.5677 9.43931 37.768 7.32135 38.3333 5.00016Z" stroke="black" stroke-width="4" stroke-linecap="round" stroke-linejoin="round"/>
</g>
<defs>
<clipPath id="clip0_60_430">
<rect width="40" height="40" fill="white"/>
</clipPath>
</defs>
</svg>
